<?xml version="1.0" encoding="UTF-8" standalone="no"?>
<svg
   xmlns:dc="http://purl.org/dc/elements/1.1/"
   xmlns:cc="http://creativecommons.org/ns#"
   xmlns:rdf="http://www.w3.org/1999/02/22-rdf-syntax-ns#"
   xmlns:svg="http://www.w3.org/2000/svg"
   xmlns="http://www.w3.org/2000/svg"
   id="svg8"
   version="1.1"
   viewBox="0 0 105.83333 158.75"
   height="600"
   width="400">
  <defs
     id="defs2">
    <marker
       style="overflow:visible"
       id="marker4357"
       refX="0"
       refY="0"
       orient="auto">
      <path
         transform="scale(-0.6)"
         d="M 8.7185878,4.0337352 -2.2072895,0.01601326 8.7185884,-4.0017078 c -1.7454984,2.3720609 -1.7354408,5.6174519 -6e-7,8.035443 z"
         style="fill:#000000;fill-opacity:1;fill-rule:evenodd;stroke:#000000;stroke-width:0.625;stroke-linejoin:round;stroke-opacity:1"
         id="path4355" />
    </marker>
    <marker
       orient="auto"
       refY="0"
       refX="0"
       id="marker4009"
       style="overflow:visible">
      <path
         id="path4007"
         style="fill:#000000;fill-opacity:1;fill-rule:evenodd;stroke:#000000;stroke-width:0.625;stroke-linejoin:round;stroke-opacity:1"
         d="M 8.7185878,4.0337352 -2.2072895,0.01601326 8.7185884,-4.0017078 c -1.7454984,2.3720609 -1.7354408,5.6174519 -6e-7,8.035443 z"
         transform="scale(-0.6)" />
    </marker>
    <marker
       style="overflow:visible"
       id="marker3667"
       refX="0"
       refY="0"
       orient="auto">
      <path
         transform="scale(-0.6)"
         d="M 8.7185878,4.0337352 -2.2072895,0.01601326 8.7185884,-4.0017078 c -1.7454984,2.3720609 -1.7354408,5.6174519 -6e-7,8.035443 z"
         style="fill:#000000;fill-opacity:1;fill-rule:evenodd;stroke:#000000;stroke-width:0.625;stroke-linejoin:round;stroke-opacity:1"
         id="path3665" />
    </marker>
    <marker
       orient="auto"
       refY="0"
       refX="0"
       id="marker3361"
       style="overflow:visible">
      <path
         id="path3359"
         style="fill:#000000;fill-opacity:1;fill-rule:evenodd;stroke:#000000;stroke-width:0.625;stroke-linejoin:round;stroke-opacity:1"
         d="M 8.7185878,4.0337352 -2.2072895,0.01601326 8.7185884,-4.0017078 c -1.7454984,2.3720609 -1.7354408,5.6174519 -6e-7,8.035443 z"
         transform="scale(-0.6)" />
    </marker>
    <marker
       orient="auto"
       refY="0"
       refX="0"
       id="marker12947"
       style="overflow:visible">
      <path
         id="path12945"
         style="fill:#ff8000;fill-opacity:0.50196078;fill-rule:evenodd;stroke:#ff8000;stroke-width:0.625;stroke-linejoin:round;stroke-opacity:0.50196078"
         d="M 8.7185878,4.0337352 -2.2072895,0.01601326 8.7185884,-4.0017078 c -1.7454984,2.3720609 -1.7354408,5.6174519 -6e-7,8.035443 z"
         transform="scale(-0.6)" />
    </marker>
    <marker
       style="overflow:visible"
       id="marker12775"
       refX="0"
       refY="0"
       orient="auto">
      <path
         transform="scale(-0.6)"
         d="M 8.7185878,4.0337352 -2.2072895,0.01601326 8.7185884,-4.0017078 c -1.7454984,2.3720609 -1.7354408,5.6174519 -6e-7,8.035443 z"
         style="fill:#0080ff;fill-opacity:1;fill-rule:evenodd;stroke:#0080ff;stroke-width:0.625;stroke-linejoin:round;stroke-opacity:1"
         id="path12773" />
    </marker>
    <marker
       orient="auto"
       refY="0"
       refX="0"
       id="marker12055"
       style="overflow:visible">
      <path
         id="path12053"
         style="fill:#ff8000;fill-opacity:1;fill-rule:evenodd;stroke:#ff8000;stroke-width:0.625;stroke-linejoin:round;stroke-opacity:1"
         d="M 8.7185878,4.0337352 -2.2072895,0.01601326 8.7185884,-4.0017078 c -1.7454984,2.3720609 -1.7354408,5.6174519 -6e-7,8.035443 z"
         transform="scale(-0.6)" />
    </marker>
    <marker
       style="overflow:visible"
       id="marker11211"
       refX="0"
       refY="0"
       orient="auto">
      <path
         transform="scale(-0.6)"
         d="M 8.7185878,4.0337352 -2.2072895,0.01601326 8.7185884,-4.0017078 c -1.7454984,2.3720609 -1.7354408,5.6174519 -6e-7,8.035443 z"
         style="fill:#0080ff;fill-opacity:1;fill-rule:evenodd;stroke:#0080ff;stroke-width:0.625;stroke-linejoin:round;stroke-opacity:1"
         id="path11209" />
    </marker>
    <marker
       style="overflow:visible"
       id="marker9781"
       refX="0"
       refY="0"
       orient="auto">
      <path
         transform="scale(-0.6)"
         d="M 8.7185878,4.0337352 -2.2072895,0.01601326 8.7185884,-4.0017078 c -1.7454984,2.3720609 -1.7354408,5.6174519 -6e-7,8.035443 z"
         style="fill:#0080ff;fill-opacity:1;fill-rule:evenodd;stroke:#0080ff;stroke-width:0.625;stroke-linejoin:round;stroke-opacity:1"
         id="path9779" />
    </marker>
    <marker
       style="overflow:visible"
       id="marker8272"
       refX="0"
       refY="0"
       orient="auto">
      <path
         transform="scale(-0.6)"
         d="M 8.7185878,4.0337352 -2.2072895,0.01601326 8.7185884,-4.0017078 c -1.7454984,2.3720609 -1.7354408,5.6174519 -6e-7,8.035443 z"
         style="fill:#000000;fill-opacity:1;fill-rule:evenodd;stroke:#000000;stroke-width:0.625;stroke-linejoin:round;stroke-opacity:1"
         id="path8270" />
    </marker>
    <marker
       style="overflow:visible"
       id="Arrow2Lend"
       refX="0"
       refY="0"
       orient="auto">
      <path
         transform="matrix(-1.1,0,0,-1.1,-1.1,0)"
         d="M 8.7185878,4.0337352 -2.2072895,0.01601326 8.7185884,-4.0017078 c -1.7454984,2.3720609 -1.7354408,5.6174519 -6e-7,8.035443 z"
         style="fill:#000000;fill-opacity:1;fill-rule:evenodd;stroke:#000000;stroke-width:0.625;stroke-linejoin:round;stroke-opacity:1"
         id="path898" />
    </marker>
    <marker
       style="overflow:visible"
       id="marker7932"
       refX="0"
       refY="0"
       orient="auto">
      <path
         transform="scale(-0.6)"
         d="M 8.7185878,4.0337352 -2.2072895,0.01601326 8.7185884,-4.0017078 c -1.7454984,2.3720609 -1.7354408,5.6174519 -6e-7,8.035443 z"
         style="fill:#000000;fill-opacity:1;fill-rule:evenodd;stroke:#000000;stroke-width:0.625;stroke-linejoin:round;stroke-opacity:1"
         id="path7930" />
    </marker>
    <marker
       style="overflow:visible"
       id="marker7832"
       refX="0"
       refY="0"
       orient="auto">
      <path
         transform="scale(-0.6)"
         d="M 8.7185878,4.0337352 -2.2072895,0.01601326 8.7185884,-4.0017078 c -1.7454984,2.3720609 -1.7354408,5.6174519 -6e-7,8.035443 z"
         style="fill:#000000;fill-opacity:1;fill-rule:evenodd;stroke:#000000;stroke-width:0.625;stroke-linejoin:round;stroke-opacity:1"
         id="path7830" />
    </marker>
    <marker
       style="overflow:visible"
       id="Arrow1Lend"
       refX="0"
       refY="0"
       orient="auto">
      <path
         transform="matrix(-0.8,0,0,-0.8,-10,0)"
         style="fill:#000000;fill-opacity:1;fill-rule:evenodd;stroke:#000000;stroke-width:1.00000003pt;stroke-opacity:1"
         d="M 0,0 5,-5 -12.5,0 5,5 Z"
         id="path880" />
    </marker>
    <marker
       style="overflow:visible"
       id="marker3737"
       refX="0"
       refY="0"
       orient="auto">
      <path
         transform="scale(-0.6)"
         d="M 8.7185878,4.0337352 -2.2072895,0.01601326 8.7185884,-4.0017078 c -1.7454984,2.3720609 -1.7354408,5.6174519 -6e-7,8.035443 z"
         style="fill:#000000;fill-opacity:1;fill-rule:evenodd;stroke:#000000;stroke-width:0.625;stroke-linejoin:round;stroke-opacity:1"
         id="path3735" />
    </marker>
    <marker
       orient="auto"
       refY="0"
       refX="0"
       id="marker3503"
       style="overflow:visible">
      <path
         id="path3501"
         style="fill:#000000;fill-opacity:1;fill-rule:evenodd;stroke:#000000;stroke-width:0.625;stroke-linejoin:round;stroke-opacity:1"
         d="M 8.7185878,4.0337352 -2.2072895,0.01601326 8.7185884,-4.0017078 c -1.7454984,2.3720609 -1.7354408,5.6174519 -6e-7,8.035443 z"
         transform="scale(-0.6)" />
    </marker>
    <marker
       style="overflow:visible"
       id="marker3423"
       refX="0"
       refY="0"
       orient="auto">
      <path
         transform="scale(-0.6)"
         d="M 8.7185878,4.0337352 -2.2072895,0.01601326 8.7185884,-4.0017078 c -1.7454984,2.3720609 -1.7354408,5.6174519 -6e-7,8.035443 z"
         style="fill:#000000;fill-opacity:1;fill-rule:evenodd;stroke:#000000;stroke-width:0.625;stroke-linejoin:round;stroke-opacity:1"
         id="path3421" />
    </marker>
    <marker
       orient="auto"
       refY="0"
       refX="0"
       id="marker3353"
       style="overflow:visible">
      <path
         id="path3351"
         style="fill:#000000;fill-opacity:1;fill-rule:evenodd;stroke:#000000;stroke-width:0.625;stroke-linejoin:round;stroke-opacity:1"
         d="M 8.7185878,4.0337352 -2.2072895,0.01601326 8.7185884,-4.0017078 c -1.7454984,2.3720609 -1.7354408,5.6174519 -6e-7,8.035443 z"
         transform="scale(-0.6)" />
    </marker>
    <marker
       orient="auto"
       refY="0"
       refX="0"
       id="marker2051"
       style="overflow:visible">
      <path
         id="path2049"
         style="fill:#000000;fill-opacity:1;fill-rule:evenodd;stroke:#000000;stroke-width:0.625;stroke-linejoin:round;stroke-opacity:1"
         d="M 8.7185878,4.0337352 -2.2072895,0.01601326 8.7185884,-4.0017078 c -1.7454984,2.3720609 -1.7354408,5.6174519 -6e-7,8.035443 z"
         transform="scale(-0.6)" />
    </marker>
    <marker
       style="overflow:visible"
       id="marker2003"
       refX="0"
       refY="0"
       orient="auto">
      <path
         transform="scale(-0.6)"
         d="M 8.7185878,4.0337352 -2.2072895,0.01601326 8.7185884,-4.0017078 c -1.7454984,2.3720609 -1.7354408,5.6174519 -6e-7,8.035443 z"
         style="fill:#000000;fill-opacity:1;fill-rule:evenodd;stroke:#000000;stroke-width:0.625;stroke-linejoin:round;stroke-opacity:1"
         id="path2001" />
    </marker>
    <marker
       style="overflow:visible"
       id="Arrow2Mend"
       refX="0"
       refY="0"
       orient="auto">
      <path
         transform="scale(-0.6)"
         d="M 8.7185878,4.0337352 -2.2072895,0.01601326 8.7185884,-4.0017078 c -1.7454984,2.3720609 -1.7354408,5.6174519 -6e-7,8.035443 z"
         style="fill:#000000;fill-opacity:1;fill-rule:evenodd;stroke:#000000;stroke-width:0.625;stroke-linejoin:round;stroke-opacity:1"
         id="path904" />
    </marker>
    <marker
       style="overflow:visible"
       id="Arrow2Send"
       refX="0"
       refY="0"
       orient="auto">
      <path
         transform="matrix(-0.3,0,0,-0.3,0.69,0)"
         d="M 8.7185878,4.0337352 -2.2072895,0.01601326 8.7185884,-4.0017078 c -1.7454984,2.3720609 -1.7354408,5.6174519 -6e-7,8.035443 z"
         style="fill:#000000;fill-opacity:1;fill-rule:evenodd;stroke:#000000;stroke-width:0.625;stroke-linejoin:round;stroke-opacity:1"
         id="path910" />
    </marker>
  </defs>
  <metadata
     id="metadata5">
    <rdf:RDF>
      <cc:Work
         rdf:about="">
        <dc:format>image/svg+xml</dc:format>
        <dc:type
           rdf:resource="http://purl.org/dc/dcmitype/StillImage" />
        <dc:title></dc:title>
      </cc:Work>
    </rdf:RDF>
  </metadata>
  <g
     transform="translate(0,-138.24998)"
     id="layer1">
    <text
       id="text2669"
       y="282.69327"
       x="-2.4990792"
       style="font-style:normal;font-weight:normal;font-size:28.22222137px;line-height:1.25;font-family:sans-serif;text-align:end;letter-spacing:0px;word-spacing:0px;text-anchor:end;fill:#000000;fill-opacity:1;stroke:none;stroke-width:0.26458332"
       xml:space="preserve"><tspan
         id="tspan2667"
         style="font-size:28.22222137px;text-align:end;text-anchor:end;stroke-width:0.26458332"
         y="307.66333"
         x="-2.4990792" /></text>
    <text
       id="text2689"
       y="-484.28229"
       x="-317.30237"
       style="font-style:normal;font-weight:normal;font-size:35.27777481px;line-height:1.25;font-family:sans-serif;letter-spacing:0px;word-spacing:0px;fill:#000000;fill-opacity:1;stroke:none;stroke-width:0.26458332"
       xml:space="preserve"><tspan
         style="stroke-width:0.26458332"
         y="-453.06973"
         x="-317.30237"
         id="tspan2687" /></text>
    <g
       transform="matrix(0.09999999,0,0,0.09999999,13.154455,187.47674)"
       id="g5649">
      <rect
         style="opacity:1;fill:#ffffff;fill-opacity:1;fill-rule:evenodd;stroke:none;stroke-width:5.29166651;stroke-linecap:round;stroke-miterlimit:4;stroke-dasharray:none;stroke-dashoffset:0;stroke-opacity:1"
         id="rect5570"
         width="1058.3334"
         height="1587.5"
         x="-131.54457"
         y="-492.26743"
         rx="10.583333"
         ry="10.583333" />
      <g
         id="g5568"
         transform="translate(-142.7549,100.88491)">
        <path
           id="path7730"
           d="M 403.01558,204.49748 H 533.48416"
           style="fill:none;stroke:#000000;stroke-width:10.58333302;stroke-linecap:butt;stroke-linejoin:miter;stroke-miterlimit:4;stroke-dasharray:none;stroke-opacity:1;marker-end:url(#marker8272)" />
        <g
           transform="translate(1.2299431e-6)"
           id="g5437">
          <path
             id="path3357"
             d="m 727.55332,-333.99163 v 66.04149"
             style="fill:none;stroke:#000000;stroke-width:5.29166603;stroke-linecap:round;stroke-linejoin:miter;stroke-miterlimit:4;stroke-dasharray:none;stroke-opacity:1;marker-end:url(#marker3737)" />
          <path
             id="path3663"
             d="m 727.55332,-69.408259 v 66.04149"
             style="fill:none;stroke:#000000;stroke-width:5.29166603;stroke-linecap:round;stroke-linejoin:miter;stroke-miterlimit:4;stroke-dasharray:none;stroke-opacity:1;marker-end:url(#marker3361)" />
          <path
             id="path4005"
             d="m 727.55332,248.09176 v 66.04149"
             style="fill:none;stroke:#000000;stroke-width:5.29166603;stroke-linecap:round;stroke-linejoin:miter;stroke-miterlimit:4;stroke-dasharray:none;stroke-opacity:1;marker-end:url(#marker3667)" />
          <path
             id="path4353"
             d="m 727.55332,618.50844 v 66.04149"
             style="fill:none;stroke:#000000;stroke-width:5.29166603;stroke-linecap:round;stroke-linejoin:miter;stroke-miterlimit:4;stroke-dasharray:none;stroke-opacity:1;marker-end:url(#marker4009)" />
          <g
             id="g3201"
             transform="translate(12.170858,-3.1750718)">
            <path
               id="path2599"
               style="fill-rule:evenodd;stroke-width:0.52916664;stroke-miterlimit:4;stroke-dasharray:none"
               d="m 726.01667,-403.70626 a 10.583333,10.583333 0 0 1 -10.58333,10.58333 10.583333,10.583333 0 0 1 -10.58333,-10.58333 10.583333,10.583333 0 0 1 10.58333,-10.58333 10.583333,10.583333 0 0 1 10.58333,10.58333 z m 2.64584,0 a 13.229167,13.229167 0 0 1 -13.22917,13.22917 13.229167,13.229167 0 0 1 -13.22917,-13.22917 13.229167,13.229167 0 0 1 13.22917,-13.22917 13.229167,13.229167 0 0 1 13.22917,13.22917 z" />
            <rect
               ry="10.583333"
               rx="10.583334"
               y="-490.92917"
               x="585.78748"
               height="127"
               width="259.29166"
               id="rect3583"
               style="fill:none;fill-opacity:1;fill-rule:evenodd;stroke:#000000;stroke-width:5.29166651;stroke-linecap:round;stroke-miterlimit:4;stroke-dasharray:none;stroke-dashoffset:0;stroke-opacity:1" />
            <text
               xml:space="preserve"
               style="font-style:normal;font-weight:normal;font-size:28.22222137px;line-height:1.25;font-family:sans-serif;text-align:start;letter-spacing:0px;word-spacing:0px;text-anchor:start;fill:#000000;fill-opacity:1;stroke:none;stroke-width:0.26458332"
               x="607.73962"
               y="-393.43298"
               id="text2639"><tspan
                 x="607.73962"
                 y="-393.43298"
                 style="font-size:28.22222137px;text-align:start;text-anchor:start;stroke-width:0.26458332"
                 id="tspan2637">State:</tspan></text>
            <text
               xml:space="preserve"
               style="font-style:normal;font-weight:normal;font-size:28.22222137px;line-height:1.25;font-family:sans-serif;text-align:start;letter-spacing:0px;word-spacing:0px;text-anchor:start;fill:#000000;fill-opacity:1;stroke:none;stroke-width:0.26458332"
               x="606.83014"
               y="-441.05798"
               id="text2661"><tspan
                 x="606.83014"
                 y="-441.05798"
                 style="font-size:28.22222137px;text-align:start;text-anchor:start;stroke-width:0.26458332"
                 id="tspan2659">Phase: Idle</tspan></text>
          </g>
          <text
             id="text5325"
             y="662.08643"
             x="790.98016"
             style="font-style:normal;font-weight:normal;font-size:28.22222137px;line-height:1.25;font-family:sans-serif;text-align:start;letter-spacing:0px;word-spacing:0px;text-anchor:start;fill:#000000;fill-opacity:1;stroke:none;stroke-width:0.26458332"
             xml:space="preserve"><tspan
               id="tspan5323"
               style="font-size:28.22222137px;text-align:start;text-anchor:start;stroke-width:0.26458332"
               y="662.08643"
               x="790.98016">P<tspan
   style="font-size:64.99999762%;text-align:start;baseline-shift:sub;text-anchor:start"
   id="tspan5345">1</tspan> seed</tspan></text>
          <text
             id="text5329"
             y="291.66974"
             x="790.98016"
             style="font-style:normal;font-weight:normal;font-size:28.22222137px;line-height:1.25;font-family:sans-serif;text-align:start;letter-spacing:0px;word-spacing:0px;text-anchor:start;fill:#000000;fill-opacity:1;stroke:none;stroke-width:0.26458332"
             xml:space="preserve"><tspan
               id="tspan5327"
               style="font-size:28.22222137px;text-align:start;text-anchor:start;stroke-width:0.26458332"
               y="291.66974"
               x="790.98016">P<tspan
   style="font-size:64.99999762%;text-align:start;baseline-shift:sub;text-anchor:start"
   id="tspan5339">2</tspan> seed</tspan></text>
          <text
             id="text5333"
             y="-25.830286"
             x="790.98016"
             style="font-style:normal;font-weight:normal;font-size:28.22222137px;line-height:1.25;font-family:sans-serif;text-align:start;letter-spacing:0px;word-spacing:0px;text-anchor:start;fill:#000000;fill-opacity:1;stroke:none;stroke-width:0.26458332"
             xml:space="preserve"><tspan
               id="tspan5331"
               style="font-size:28.22222137px;text-align:start;text-anchor:start;stroke-width:0.26458332"
               y="-25.830286"
               x="790.98016">P<tspan
   style="font-size:64.99999762%;text-align:start;baseline-shift:sub;text-anchor:start"
   id="tspan5335">1</tspan> hash</tspan></text>
          <text
             xml:space="preserve"
             style="font-style:normal;font-weight:normal;font-size:28.22222137px;line-height:1.25;font-family:sans-serif;text-align:start;letter-spacing:0px;word-spacing:0px;text-anchor:start;fill:#000000;fill-opacity:1;stroke:none;stroke-width:0.26458332"
             x="792.16528"
             y="-287.79126"
             id="text2701"><tspan
               x="792.16528"
               y="-287.79126"
               style="font-size:28.22222137px;text-align:start;text-anchor:start;stroke-width:0.26458332"
               id="tspan2699">Game action</tspan></text>
          <g
             id="g3209"
             transform="translate(8.9958705,-1.0584126)">
            <path
               id="path2633"
               d="m 718.60834,-154.46875 a 13.229167,13.229167 0 0 0 -13.22917,13.22916 13.229167,13.229167 0 0 0 13.22917,13.22917 13.229167,13.229167 0 0 0 13.22916,-13.22917 13.229167,13.229167 0 0 0 -13.22916,-13.22916 z m 0,2.64583 a 10.583333,10.583333 0 0 1 6.48022,2.23242 l -6.48074,6.48074 -6.48591,-6.48591 a 10.583333,10.583333 0 0 1 6.48643,-2.22725 z m 8.35659,4.09794 a 10.583333,10.583333 0 0 1 2.22674,6.48539 10.583333,10.583333 0 0 1 -2.23242,6.48075 l -6.48023,-6.48023 z m -16.70802,0.005 6.48022,6.48074 -6.48539,6.48539 a 10.583333,10.583333 0 0 1 -2.22673,-6.48591 10.583333,10.583333 0 0 1 2.2319,-6.48022 z m 8.35143,8.35143 6.48539,6.48539 a 10.583333,10.583333 0 0 1 -6.48539,2.22674 10.583333,10.583333 0 0 1 -6.48074,-2.23191 z"
               style="fill-rule:evenodd;stroke-width:0.52916664;stroke-miterlimit:4;stroke-dasharray:none" />
            <rect
               style="fill:none;fill-opacity:1;fill-rule:evenodd;stroke:#000000;stroke-width:5.29166651;stroke-linecap:round;stroke-miterlimit:4;stroke-dasharray:none;stroke-dashoffset:0;stroke-opacity:1"
               id="rect3145"
               width="259.29166"
               height="127"
               x="588.96246"
               y="-228.46249"
               rx="10.583334"
               ry="10.583333" />
            <text
               id="text3149"
               y="-130.96631"
               x="610.91461"
               style="font-style:normal;font-weight:normal;font-size:28.22222137px;line-height:1.25;font-family:sans-serif;text-align:start;letter-spacing:0px;word-spacing:0px;text-anchor:start;fill:#000000;fill-opacity:1;stroke:none;stroke-width:0.26458332"
               xml:space="preserve"><tspan
                 id="tspan3147"
                 style="font-size:28.22222137px;text-align:start;text-anchor:start;stroke-width:0.26458332"
                 y="-130.96631"
                 x="610.91461">State:</tspan></text>
            <text
               id="text3153"
               y="-178.59131"
               x="610.00513"
               style="font-style:normal;font-weight:normal;font-size:28.22222137px;line-height:1.25;font-family:sans-serif;text-align:start;letter-spacing:0px;word-spacing:0px;text-anchor:start;fill:#000000;fill-opacity:1;stroke:none;stroke-width:0.26458332"
               xml:space="preserve"><tspan
                 id="tspan3151"
                 style="font-size:28.22222137px;text-align:start;text-anchor:start;stroke-width:0.26458332"
                 y="-178.59131"
                 x="610.00513">Phase: Commit</tspan></text>
          </g>
          <g
             id="g3219"
             transform="translate(39.687521,31.749984)">
            <text
               xml:space="preserve"
               style="font-style:normal;font-weight:normal;font-size:28.22222137px;line-height:1.25;font-family:sans-serif;text-align:start;letter-spacing:0px;word-spacing:0px;text-anchor:start;fill:#000000;fill-opacity:1;stroke:none;stroke-width:0.26458332"
               x="579.31348"
               y="148.4337"
               id="text2683"><tspan
                 x="579.31348"
                 y="148.4337"
                 style="font-size:28.22222137px;text-align:start;text-anchor:start;stroke-width:0.26458332"
                 id="tspan2681">P<tspan
   style="font-size:64.99999762%;text-align:start;baseline-shift:sub;text-anchor:start"
   id="tspan5337">1</tspan> hash</tspan></text>
            <path
               style="fill-rule:evenodd;stroke-width:0.52916664;stroke-miterlimit:4;stroke-dasharray:none"
               d="m 687.91667,77.306246 a 13.229167,13.229167 0 0 0 -13.22917,13.22916 13.229167,13.229167 0 0 0 13.22917,13.229174 13.229167,13.229167 0 0 0 13.22916,-13.229174 13.229167,13.229167 0 0 0 -13.22916,-13.22916 z m 0,2.64583 a 10.583333,10.583333 0 0 1 6.48022,2.23242 l -6.48074,6.48074 -6.48591,-6.48591 a 10.583333,10.583333 0 0 1 6.48643,-2.22725 z m 8.35659,4.09794 a 10.583333,10.583333 0 0 1 2.22674,6.48539 10.583333,10.583333 0 0 1 -2.23242,6.48075 l -6.48023,-6.48023 z m -16.70802,0.005 6.48022,6.48074 -6.48539,6.48539 a 10.583333,10.583333 0 0 1 -2.22673,-6.48591 10.583333,10.583333 0 0 1 2.2319,-6.48022 z m 8.35143,8.35143 6.48539,6.48539 a 10.583333,10.583333 0 0 1 -6.48539,2.226744 10.583333,10.583333 0 0 1 -6.48074,-2.231914 z"
               id="path3155" />
            <rect
               ry="10.583334"
               rx="10.583334"
               y="3.3124871"
               x="558.27081"
               height="179.91667"
               width="259.29166"
               id="rect3157"
               style="fill:none;fill-opacity:1;fill-rule:evenodd;stroke:#000000;stroke-width:5.29166651;stroke-linecap:round;stroke-miterlimit:4;stroke-dasharray:none;stroke-dashoffset:0;stroke-opacity:1" />
            <text
               xml:space="preserve"
               style="font-style:normal;font-weight:normal;font-size:28.22222137px;line-height:1.25;font-family:sans-serif;text-align:start;letter-spacing:0px;word-spacing:0px;text-anchor:start;fill:#000000;fill-opacity:1;stroke:none;stroke-width:0.26458332"
               x="580.22296"
               y="100.80869"
               id="text3161"><tspan
                 x="580.22296"
                 y="100.80869"
                 style="font-size:28.22222137px;text-align:start;text-anchor:start;stroke-width:0.26458332"
                 id="tspan3159">State:</tspan></text>
            <text
               xml:space="preserve"
               style="font-style:normal;font-weight:normal;font-size:28.22222137px;line-height:1.25;font-family:sans-serif;text-align:start;letter-spacing:0px;word-spacing:0px;text-anchor:start;fill:#000000;fill-opacity:1;stroke:none;stroke-width:0.26458332"
               x="579.31348"
               y="53.183693"
               id="text3165"><tspan
                 x="579.31348"
                 y="53.183693"
                 style="font-size:28.22222137px;text-align:start;text-anchor:start;stroke-width:0.26458332"
                 id="tspan3163">Phase: Reply</tspan></text>
          </g>
          <g
             id="g3241"
             transform="translate(79.904196,53.975005)">
            <text
               xml:space="preserve"
               style="font-style:normal;font-weight:normal;font-size:28.22222137px;line-height:1.25;font-family:sans-serif;text-align:start;letter-spacing:0px;word-spacing:0px;text-anchor:start;fill:#000000;fill-opacity:1;stroke:none;stroke-width:0.26458332"
               x="539.0968"
               y="814.12537"
               id="text2697"><tspan
                 x="539.0968"
                 y="814.12537"
                 style="font-size:28.22222137px;text-align:start;text-anchor:start;stroke-width:0.26458332"
                 id="tspan2695">RNG</tspan></text>
            <path
               d="m 658.28334,756.22708 a 10.583333,10.583333 0 0 1 -10.58333,10.58333 10.583333,10.583333 0 0 1 -10.58333,-10.58333 10.583333,10.583333 0 0 1 10.58333,-10.58333 10.583333,10.583333 0 0 1 10.58333,10.58333 z m 2.64584,0 a 13.229167,13.229167 0 0 1 -13.22917,13.22917 13.229167,13.229167 0 0 1 -13.22917,-13.22917 13.229167,13.229167 0 0 1 13.22917,-13.22917 13.229167,13.229167 0 0 1 13.22917,13.22917 z"
               style="fill-rule:evenodd;stroke-width:0.52916664;stroke-miterlimit:4;stroke-dasharray:none"
               id="path3179" />
            <rect
               style="fill:none;fill-opacity:1;fill-rule:evenodd;stroke:#000000;stroke-width:5.29166651;stroke-linecap:round;stroke-miterlimit:4;stroke-dasharray:none;stroke-dashoffset:0;stroke-opacity:1"
               id="rect3181"
               width="259.29166"
               height="179.91667"
               x="518.05414"
               y="669.00415"
               rx="10.583334"
               ry="10.583334" />
            <text
               id="text3185"
               y="766.50037"
               x="540.00629"
               style="font-style:normal;font-weight:normal;font-size:28.22222137px;line-height:1.25;font-family:sans-serif;text-align:start;letter-spacing:0px;word-spacing:0px;text-anchor:start;fill:#000000;fill-opacity:1;stroke:none;stroke-width:0.26458332"
               xml:space="preserve"><tspan
                 id="tspan3183"
                 style="font-size:28.22222137px;text-align:start;text-anchor:start;stroke-width:0.26458332"
                 y="766.50037"
                 x="540.00629">State:</tspan></text>
            <text
               id="text3189"
               y="718.87537"
               x="539.0968"
               style="font-style:normal;font-weight:normal;font-size:28.22222137px;line-height:1.25;font-family:sans-serif;text-align:start;letter-spacing:0px;word-spacing:0px;text-anchor:start;fill:#000000;fill-opacity:1;stroke:none;stroke-width:0.26458332"
               xml:space="preserve"><tspan
                 id="tspan3187"
                 style="font-size:28.22222137px;text-align:start;text-anchor:start;stroke-width:0.26458332"
                 y="718.87537"
                 x="539.0968">Phase: Idle</tspan></text>
          </g>
          <g
             id="g3231"
             transform="translate(98.954153,64.558348)">
            <text
               id="text2693"
               y="480.75037"
               x="520.04681"
               style="font-style:normal;font-weight:normal;font-size:28.22222137px;line-height:1.25;font-family:sans-serif;text-align:start;letter-spacing:0px;word-spacing:0px;text-anchor:start;fill:#000000;fill-opacity:1;stroke:none;stroke-width:0.26458332"
               xml:space="preserve"><tspan
                 id="tspan2691"
                 style="font-size:28.22222137px;text-align:start;text-anchor:start;stroke-width:0.26458332"
                 y="480.75037"
                 x="520.04681">P<tspan
   style="font-size:64.99999762%;text-align:start;baseline-shift:sub;text-anchor:start"
   id="tspan5343">2</tspan> seed</tspan></text>
            <path
               id="path3167"
               d="m 628.65001,361.99792 a 13.229167,13.229167 0 0 0 -13.22917,13.22916 13.229167,13.229167 0 0 0 13.22917,13.22917 13.229167,13.229167 0 0 0 13.22916,-13.22917 13.229167,13.229167 0 0 0 -13.22916,-13.22916 z m 0,2.64583 a 10.583333,10.583333 0 0 1 6.48022,2.23242 l -6.48074,6.48074 -6.48591,-6.48591 a 10.583333,10.583333 0 0 1 6.48643,-2.22725 z m 8.35659,4.09794 a 10.583333,10.583333 0 0 1 2.22674,6.48539 10.583333,10.583333 0 0 1 -2.23242,6.48075 l -6.48023,-6.48023 z m -16.70802,0.005 6.48022,6.48074 -6.48539,6.48539 a 10.583333,10.583333 0 0 1 -2.22673,-6.48591 10.583333,10.583333 0 0 1 2.2319,-6.48022 z m 8.35143,8.35143 6.48539,6.48539 a 10.583333,10.583333 0 0 1 -6.48539,2.22674 10.583333,10.583333 0 0 1 -6.48074,-2.23191 z"
               style="fill-rule:evenodd;stroke-width:0.52916664;stroke-miterlimit:4;stroke-dasharray:none" />
            <rect
               style="fill:none;fill-opacity:1;fill-rule:evenodd;stroke:#000000;stroke-width:5.29166698;stroke-linecap:round;stroke-miterlimit:4;stroke-dasharray:none;stroke-dashoffset:0;stroke-opacity:1"
               id="rect3169"
               width="259.29166"
               height="232.83333"
               x="499.00418"
               y="288.00415"
               rx="10.583334"
               ry="10.583333" />
            <text
               id="text3173"
               y="385.50037"
               x="520.95636"
               style="font-style:normal;font-weight:normal;font-size:28.22222137px;line-height:1.25;font-family:sans-serif;text-align:start;letter-spacing:0px;word-spacing:0px;text-anchor:start;fill:#000000;fill-opacity:1;stroke:none;stroke-width:0.26458332"
               xml:space="preserve"><tspan
                 id="tspan3171"
                 style="font-size:28.22222137px;text-align:start;text-anchor:start;stroke-width:0.26458332"
                 y="385.50037"
                 x="520.95636">State:</tspan></text>
            <text
               id="text3177"
               y="337.87537"
               x="520.04681"
               style="font-style:normal;font-weight:normal;font-size:28.22222137px;line-height:1.25;font-family:sans-serif;text-align:start;letter-spacing:0px;word-spacing:0px;text-anchor:start;fill:#000000;fill-opacity:1;stroke:none;stroke-width:0.26458332"
               xml:space="preserve"><tspan
                 id="tspan3175"
                 style="font-size:28.22222137px;text-align:start;text-anchor:start;stroke-width:0.26458332"
                 y="337.87537"
                 x="520.04681">Phase: Reveal</tspan></text>
            <text
               id="text3193"
               y="433.12537"
               x="520.04681"
               style="font-style:normal;font-weight:normal;font-size:28.22222137px;line-height:1.25;font-family:sans-serif;text-align:start;letter-spacing:0px;word-spacing:0px;text-anchor:start;fill:#000000;fill-opacity:1;stroke:none;stroke-width:0.26458332"
               xml:space="preserve"><tspan
                 id="tspan3191"
                 style="font-size:28.22222137px;text-align:start;text-anchor:start;stroke-width:0.26458332"
                 y="433.12537"
                 x="520.04681">P<tspan
   style="font-size:64.99999762%;text-align:start;baseline-shift:sub;text-anchor:start"
   id="tspan5341">1</tspan> hash</tspan></text>
          </g>
        </g>
        <g
           transform="translate(3.7822075)"
           id="g5374">
          <path
             id="path12"
             style="fill-rule:evenodd;stroke-width:0.52916664;stroke-miterlimit:4;stroke-dasharray:none"
             d="m 350.75946,-430.60424 a 10.583333,10.583333 0 0 1 -10.58333,10.58334 10.583333,10.583333 0 0 1 -10.58333,-10.58334 10.583333,10.583333 0 0 1 10.58333,-10.58333 10.583333,10.583333 0 0 1 10.58333,10.58333 z m 2.64584,0 a 13.229167,13.229167 0 0 1 -13.22917,13.22917 13.229167,13.229167 0 0 1 -13.22917,-13.22917 13.229167,13.229167 0 0 1 13.22917,-13.22916 13.229167,13.229167 0 0 1 13.22917,13.22916 z" />
          <path
             style="fill:none;stroke:#000000;stroke-width:2.64583302;stroke-linecap:round;stroke-linejoin:miter;stroke-miterlimit:4;stroke-dasharray:none;stroke-opacity:1;marker-end:url(#Arrow2Mend)"
             d="M 340.02416,-401.9833 V 781.65821"
             id="path875" />
          <g
             id="g2597"
             transform="translate(341.67284,527.48598)">
            <path
               style="fill:none;stroke:#000000;stroke-width:2.64583325;stroke-linecap:round;stroke-linejoin:miter;stroke-miterlimit:4;stroke-dasharray:none;stroke-opacity:1"
               d="m -1.4967102,311.9141 v 12.01096"
               id="path2047" />
            <path
               id="path2587"
               d="m -1.4967102,329.37656 v 12.01096"
               style="fill:none;stroke:#000000;stroke-width:2.64583325;stroke-linecap:round;stroke-linejoin:miter;stroke-miterlimit:4;stroke-dasharray:2.64583334, 5.29166668;stroke-dashoffset:0;stroke-opacity:1" />
          </g>
          <g
             id="g2593"
             transform="translate(338.654,-508.96351)">
            <path
               id="path1999"
               d="M 1.4967084,22.0879 V 48.546235"
               style="fill:none;stroke:#000000;stroke-width:2.64583325;stroke-linecap:round;stroke-linejoin:miter;stroke-miterlimit:4;stroke-dasharray:none;stroke-opacity:1;marker-end:url(#marker2003)" />
            <path
               style="fill:none;stroke:#000000;stroke-width:2.64583325;stroke-linecap:round;stroke-linejoin:miter;stroke-miterlimit:4;stroke-dasharray:2.64583334, 5.29166668;stroke-dashoffset:0;stroke-opacity:1"
               d="M 1.5221307,5.9589409 V 17.969902"
               id="path2589" />
          </g>
          <path
             d="m 350.75946,812.93749 a 10.583333,10.583333 0 0 1 -10.58333,10.58334 10.583333,10.583333 0 0 1 -10.58333,-10.58334 10.583333,10.583333 0 0 1 10.58333,-10.58333 10.583333,10.583333 0 0 1 10.58333,10.58333 z m 2.64584,0 a 13.229167,13.229167 0 0 1 -13.22917,13.22917 13.229167,13.229167 0 0 1 -13.22917,-13.22917 13.229167,13.229167 0 0 1 13.22917,-13.22916 13.229167,13.229167 0 0 1 13.22917,13.22916 z"
             style="fill-rule:evenodd;stroke-width:0.52916664;stroke-miterlimit:4;stroke-dasharray:none"
             id="path4697" />
        </g>
        <text
           xml:space="preserve"
           style="font-style:normal;font-weight:normal;font-size:28.22222137px;line-height:1.25;font-family:sans-serif;text-align:start;letter-spacing:0px;word-spacing:0px;text-anchor:start;fill:#000000;fill-opacity:1;stroke:none;stroke-width:0.26458332"
           x="109.54025"
           y="214.91711"
           id="text5351"><tspan
             x="109.54025"
             y="214.91711"
             style="font-size:28.22222137px;text-align:start;text-anchor:start;stroke-width:0.26458332"
             id="tspan5349">Game action</tspan></text>
      </g>
    </g>
  </g>
</svg>
