<?xml version="1.0" encoding="UTF-8" standalone="no"?>
<svg
   xmlns:dc="http://purl.org/dc/elements/1.1/"
   xmlns:cc="http://creativecommons.org/ns#"
   xmlns:rdf="http://www.w3.org/1999/02/22-rdf-syntax-ns#"
   xmlns:svg="http://www.w3.org/2000/svg"
   xmlns="http://www.w3.org/2000/svg"
   id="svg8"
   version="1.1"
   viewBox="0 0 92.604165 84.666668"
   height="320"
   width="350">
  <defs
     id="defs2">
    <marker
       orient="auto"
       refY="0"
       refX="0"
       id="marker12947"
       style="overflow:visible">
      <path
         id="path12945"
         style="fill:#ff8000;fill-opacity:0.50196078;fill-rule:evenodd;stroke:#ff8000;stroke-width:0.625;stroke-linejoin:round;stroke-opacity:0.50196078"
         d="M 8.7185878,4.0337352 -2.2072895,0.01601326 8.7185884,-4.0017078 c -1.7454984,2.3720609 -1.7354408,5.6174519 -6e-7,8.035443 z"
         transform="scale(-0.6)" />
    </marker>
    <marker
       style="overflow:visible"
       id="marker12775"
       refX="0"
       refY="0"
       orient="auto">
      <path
         transform="scale(-0.6)"
         d="M 8.7185878,4.0337352 -2.2072895,0.01601326 8.7185884,-4.0017078 c -1.7454984,2.3720609 -1.7354408,5.6174519 -6e-7,8.035443 z"
         style="fill:#0080ff;fill-opacity:1;fill-rule:evenodd;stroke:#0080ff;stroke-width:0.625;stroke-linejoin:round;stroke-opacity:1"
         id="path12773" />
    </marker>
    <marker
       orient="auto"
       refY="0"
       refX="0"
       id="marker12055"
       style="overflow:visible">
      <path
         id="path12053"
         style="fill:#ff8000;fill-opacity:1;fill-rule:evenodd;stroke:#ff8000;stroke-width:0.625;stroke-linejoin:round;stroke-opacity:1"
         d="M 8.7185878,4.0337352 -2.2072895,0.01601326 8.7185884,-4.0017078 c -1.7454984,2.3720609 -1.7354408,5.6174519 -6e-7,8.035443 z"
         transform="scale(-0.6)" />
    </marker>
    <marker
       style="overflow:visible"
       id="marker11211"
       refX="0"
       refY="0"
       orient="auto">
      <path
         transform="scale(-0.6)"
         d="M 8.7185878,4.0337352 -2.2072895,0.01601326 8.7185884,-4.0017078 c -1.7454984,2.3720609 -1.7354408,5.6174519 -6e-7,8.035443 z"
         style="fill:#0080ff;fill-opacity:1;fill-rule:evenodd;stroke:#0080ff;stroke-width:0.625;stroke-linejoin:round;stroke-opacity:1"
         id="path11209" />
    </marker>
    <marker
       style="overflow:visible"
       id="marker9781"
       refX="0"
       refY="0"
       orient="auto">
      <path
         transform="scale(-0.6)"
         d="M 8.7185878,4.0337352 -2.2072895,0.01601326 8.7185884,-4.0017078 c -1.7454984,2.3720609 -1.7354408,5.6174519 -6e-7,8.035443 z"
         style="fill:#0080ff;fill-opacity:1;fill-rule:evenodd;stroke:#0080ff;stroke-width:0.625;stroke-linejoin:round;stroke-opacity:1"
         id="path9779" />
    </marker>
    <marker
       style="overflow:visible"
       id="marker8272"
       refX="0"
       refY="0"
       orient="auto">
      <path
         transform="scale(-0.6)"
         d="M 8.7185878,4.0337352 -2.2072895,0.01601326 8.7185884,-4.0017078 c -1.7454984,2.3720609 -1.7354408,5.6174519 -6e-7,8.035443 z"
         style="fill:#000000;fill-opacity:1;fill-rule:evenodd;stroke:#000000;stroke-width:0.625;stroke-linejoin:round;stroke-opacity:1"
         id="path8270" />
    </marker>
    <marker
       style="overflow:visible"
       id="Arrow2Lend"
       refX="0"
       refY="0"
       orient="auto">
      <path
         transform="matrix(-1.1,0,0,-1.1,-1.1,0)"
         d="M 8.7185878,4.0337352 -2.2072895,0.01601326 8.7185884,-4.0017078 c -1.7454984,2.3720609 -1.7354408,5.6174519 -6e-7,8.035443 z"
         style="fill:#000000;fill-opacity:1;fill-rule:evenodd;stroke:#000000;stroke-width:0.625;stroke-linejoin:round;stroke-opacity:1"
         id="path898" />
    </marker>
    <marker
       style="overflow:visible"
       id="marker7932"
       refX="0"
       refY="0"
       orient="auto">
      <path
         transform="scale(-0.6)"
         d="M 8.7185878,4.0337352 -2.2072895,0.01601326 8.7185884,-4.0017078 c -1.7454984,2.3720609 -1.7354408,5.6174519 -6e-7,8.035443 z"
         style="fill:#000000;fill-opacity:1;fill-rule:evenodd;stroke:#000000;stroke-width:0.625;stroke-linejoin:round;stroke-opacity:1"
         id="path7930" />
    </marker>
    <marker
       style="overflow:visible"
       id="marker7832"
       refX="0"
       refY="0"
       orient="auto">
      <path
         transform="scale(-0.6)"
         d="M 8.7185878,4.0337352 -2.2072895,0.01601326 8.7185884,-4.0017078 c -1.7454984,2.3720609 -1.7354408,5.6174519 -6e-7,8.035443 z"
         style="fill:#000000;fill-opacity:1;fill-rule:evenodd;stroke:#000000;stroke-width:0.625;stroke-linejoin:round;stroke-opacity:1"
         id="path7830" />
    </marker>
    <marker
       style="overflow:visible"
       id="Arrow1Lend"
       refX="0"
       refY="0"
       orient="auto">
      <path
         transform="matrix(-0.8,0,0,-0.8,-10,0)"
         style="fill:#000000;fill-opacity:1;fill-rule:evenodd;stroke:#000000;stroke-width:1.00000003pt;stroke-opacity:1"
         d="M 0,0 5,-5 -12.5,0 5,5 Z"
         id="path880" />
    </marker>
    <marker
       orient="auto"
       refY="0"
       refX="0"
       id="marker4415"
       style="overflow:visible">
      <path
         id="path4413"
         style="fill:#000000;fill-opacity:1;fill-rule:evenodd;stroke:#000000;stroke-width:0.625;stroke-linejoin:round;stroke-opacity:1"
         d="M 8.7185878,4.0337352 -2.2072895,0.01601326 8.7185884,-4.0017078 c -1.7454984,2.3720609 -1.7354408,5.6174519 -6e-7,8.035443 z"
         transform="scale(-0.6)" />
    </marker>
    <marker
       style="overflow:visible"
       id="marker3737"
       refX="0"
       refY="0"
       orient="auto">
      <path
         transform="scale(-0.6)"
         d="M 8.7185878,4.0337352 -2.2072895,0.01601326 8.7185884,-4.0017078 c -1.7454984,2.3720609 -1.7354408,5.6174519 -6e-7,8.035443 z"
         style="fill:#000000;fill-opacity:1;fill-rule:evenodd;stroke:#000000;stroke-width:0.625;stroke-linejoin:round;stroke-opacity:1"
         id="path3735" />
    </marker>
    <marker
       orient="auto"
       refY="0"
       refX="0"
       id="marker3503"
       style="overflow:visible">
      <path
         id="path3501"
         style="fill:#000000;fill-opacity:1;fill-rule:evenodd;stroke:#000000;stroke-width:0.625;stroke-linejoin:round;stroke-opacity:1"
         d="M 8.7185878,4.0337352 -2.2072895,0.01601326 8.7185884,-4.0017078 c -1.7454984,2.3720609 -1.7354408,5.6174519 -6e-7,8.035443 z"
         transform="scale(-0.6)" />
    </marker>
    <marker
       style="overflow:visible"
       id="marker3423"
       refX="0"
       refY="0"
       orient="auto">
      <path
         transform="scale(-0.6)"
         d="M 8.7185878,4.0337352 -2.2072895,0.01601326 8.7185884,-4.0017078 c -1.7454984,2.3720609 -1.7354408,5.6174519 -6e-7,8.035443 z"
         style="fill:#000000;fill-opacity:1;fill-rule:evenodd;stroke:#000000;stroke-width:0.625;stroke-linejoin:round;stroke-opacity:1"
         id="path3421" />
    </marker>
    <marker
       orient="auto"
       refY="0"
       refX="0"
       id="marker3353"
       style="overflow:visible">
      <path
         id="path3351"
         style="fill:#000000;fill-opacity:1;fill-rule:evenodd;stroke:#000000;stroke-width:0.625;stroke-linejoin:round;stroke-opacity:1"
         d="M 8.7185878,4.0337352 -2.2072895,0.01601326 8.7185884,-4.0017078 c -1.7454984,2.3720609 -1.7354408,5.6174519 -6e-7,8.035443 z"
         transform="scale(-0.6)" />
    </marker>
    <marker
       orient="auto"
       refY="0"
       refX="0"
       id="marker3137"
       style="overflow:visible">
      <path
         id="path3135"
         style="fill:#000000;fill-opacity:1;fill-rule:evenodd;stroke:#000000;stroke-width:0.625;stroke-linejoin:round;stroke-opacity:1"
         d="M 8.7185878,4.0337352 -2.2072895,0.01601326 8.7185884,-4.0017078 c -1.7454984,2.3720609 -1.7354408,5.6174519 -6e-7,8.035443 z"
         transform="scale(-0.6)" />
    </marker>
    <marker
       style="overflow:visible"
       id="marker2627"
       refX="0"
       refY="0"
       orient="auto">
      <path
         transform="scale(-0.6)"
         d="M 8.7185878,4.0337352 -2.2072895,0.01601326 8.7185884,-4.0017078 c -1.7454984,2.3720609 -1.7354408,5.6174519 -6e-7,8.035443 z"
         style="fill:#000000;fill-opacity:1;fill-rule:evenodd;stroke:#000000;stroke-width:0.625;stroke-linejoin:round;stroke-opacity:1"
         id="path2625" />
    </marker>
    <marker
       orient="auto"
       refY="0"
       refX="0"
       id="marker2051"
       style="overflow:visible">
      <path
         id="path2049"
         style="fill:#000000;fill-opacity:1;fill-rule:evenodd;stroke:#000000;stroke-width:0.625;stroke-linejoin:round;stroke-opacity:1"
         d="M 8.7185878,4.0337352 -2.2072895,0.01601326 8.7185884,-4.0017078 c -1.7454984,2.3720609 -1.7354408,5.6174519 -6e-7,8.035443 z"
         transform="scale(-0.6)" />
    </marker>
    <marker
       style="overflow:visible"
       id="marker2003"
       refX="0"
       refY="0"
       orient="auto">
      <path
         transform="scale(-0.6)"
         d="M 8.7185878,4.0337352 -2.2072895,0.01601326 8.7185884,-4.0017078 c -1.7454984,2.3720609 -1.7354408,5.6174519 -6e-7,8.035443 z"
         style="fill:#000000;fill-opacity:1;fill-rule:evenodd;stroke:#000000;stroke-width:0.625;stroke-linejoin:round;stroke-opacity:1"
         id="path2001" />
    </marker>
    <marker
       orient="auto"
       refY="0"
       refX="0"
       id="marker1629"
       style="overflow:visible">
      <path
         id="path1627"
         style="fill:#000000;fill-opacity:1;fill-rule:evenodd;stroke:#000000;stroke-width:0.625;stroke-linejoin:round;stroke-opacity:1"
         d="M 8.7185878,4.0337352 -2.2072895,0.01601326 8.7185884,-4.0017078 c -1.7454984,2.3720609 -1.7354408,5.6174519 -6e-7,8.035443 z"
         transform="scale(-0.6)" />
    </marker>
    <marker
       style="overflow:visible"
       id="Arrow2Mend"
       refX="0"
       refY="0"
       orient="auto">
      <path
         transform="scale(-0.6)"
         d="M 8.7185878,4.0337352 -2.2072895,0.01601326 8.7185884,-4.0017078 c -1.7454984,2.3720609 -1.7354408,5.6174519 -6e-7,8.035443 z"
         style="fill:#000000;fill-opacity:1;fill-rule:evenodd;stroke:#000000;stroke-width:0.625;stroke-linejoin:round;stroke-opacity:1"
         id="path904" />
    </marker>
    <marker
       style="overflow:visible"
       id="Arrow2Send"
       refX="0"
       refY="0"
       orient="auto">
      <path
         transform="matrix(-0.3,0,0,-0.3,0.69,0)"
         d="M 8.7185878,4.0337352 -2.2072895,0.01601326 8.7185884,-4.0017078 c -1.7454984,2.3720609 -1.7354408,5.6174519 -6e-7,8.035443 z"
         style="fill:#000000;fill-opacity:1;fill-rule:evenodd;stroke:#000000;stroke-width:0.625;stroke-linejoin:round;stroke-opacity:1"
         id="path910" />
    </marker>
  </defs>
  <metadata
     id="metadata5">
    <rdf:RDF>
      <cc:Work
         rdf:about="">
        <dc:format>image/svg+xml</dc:format>
        <dc:type
           rdf:resource="http://purl.org/dc/dcmitype/StillImage" />
        <dc:title></dc:title>
      </cc:Work>
    </rdf:RDF>
  </metadata>
  <g
     transform="translate(0,-212.33333)"
     id="layer1">
    <g
       transform="matrix(0.1,0,0,0.1,75.491377,235.95189)"
       id="g13482">
      <rect
         style="opacity:1;fill:#ffffff;fill-rule:evenodd;stroke:none;stroke-width:2.64583325;stroke-linecap:round;stroke-miterlimit:4;stroke-dasharray:none;stroke-dashoffset:0;stroke-opacity:1"
         id="rect13388"
         width="926.04169"
         height="846.66663"
         x="-754.91382"
         y="-236.18556"
         rx="10.583334"
         ry="10.583333" />
      <g
         id="g13351"
         transform="translate(-3.9665757,15.483749)">
        <path
           d="m -400.18778,-118.39591 a 10.583333,10.583333 0 0 1 -10.58333,10.58334 10.583333,10.583333 0 0 1 -10.58333,-10.58334 10.583333,10.583333 0 0 1 10.58333,-10.58333 10.583333,10.583333 0 0 1 10.58333,10.58333 z m 2.64584,0 a 13.229167,13.229167 0 0 1 -13.22917,13.22917 13.229167,13.229167 0 0 1 -13.22917,-13.22917 13.229167,13.229167 0 0 1 13.22917,-13.22916 13.229167,13.229167 0 0 1 13.22917,13.22916 z"
           style="fill-rule:evenodd;stroke-width:0.52916664;stroke-miterlimit:4;stroke-dasharray:none"
           id="path12" />
        <path
           id="path825"
           d="m -410.7711,121.8458 a 13.229167,13.229167 0 0 0 -13.22917,13.22916 13.229167,13.229167 0 0 0 13.22917,13.22917 13.229167,13.229167 0 0 0 13.22916,-13.22917 13.229167,13.229167 0 0 0 -13.22916,-13.22916 z m 0,2.64583 a 10.583333,10.583333 0 0 1 6.48022,2.23242 l -6.48074,6.48074 -6.48591,-6.48591 a 10.583333,10.583333 0 0 1 6.48643,-2.22725 z m 8.35659,4.09794 a 10.583333,10.583333 0 0 1 2.22674,6.48539 10.583333,10.583333 0 0 1 -2.23242,6.48075 l -6.48023,-6.48023 z m -16.70802,0.005 6.48022,6.48074 -6.48539,6.48539 a 10.583333,10.583333 0 0 1 -2.22673,-6.48591 10.583333,10.583333 0 0 1 2.2319,-6.48022 z m 8.35143,8.35143 6.48539,6.48539 a 10.583333,10.583333 0 0 1 -6.48539,2.22674 10.583333,10.583333 0 0 1 -6.48074,-2.23191 z"
           style="fill-rule:evenodd;stroke-width:0.52916664;stroke-miterlimit:4;stroke-dasharray:none" />
        <path
           id="path875"
           d="M -410.79653,-90.102991 V 104.12372"
           style="fill:none;stroke:#000000;stroke-width:2.64583325;stroke-linecap:round;stroke-linejoin:miter;stroke-miterlimit:4;stroke-dasharray:none;stroke-opacity:1;marker-end:url(#Arrow2Mend)" />
        <path
           style="fill-rule:evenodd;stroke-width:0.52916664;stroke-miterlimit:4;stroke-dasharray:none"
           d="m -410.7711,415.00415 a 13.229167,13.229167 0 0 0 -13.22917,13.22916 13.229167,13.229167 0 0 0 13.22917,13.22917 13.229167,13.229167 0 0 0 13.22916,-13.22917 13.229167,13.229167 0 0 0 -13.22916,-13.22916 z m 0,2.64583 a 10.583333,10.583333 0 0 1 6.48022,2.23242 l -6.48074,6.48074 -6.48591,-6.48591 a 10.583333,10.583333 0 0 1 6.48643,-2.22725 z m 8.35659,4.09794 a 10.583333,10.583333 0 0 1 2.22674,6.48539 10.583333,10.583333 0 0 1 -2.23242,6.48075 l -6.48023,-6.48023 z m -16.70802,0.005 6.48022,6.48074 -6.48539,6.48539 a 10.583333,10.583333 0 0 1 -2.22673,-6.48591 10.583333,10.583333 0 0 1 2.2319,-6.48022 z m 8.35143,8.35143 6.48539,6.48539 a 10.583333,10.583333 0 0 1 -6.48539,2.22674 10.583333,10.583333 0 0 1 -6.48074,-2.23191 z"
           id="path1617" />
        <path
           style="fill:none;stroke:#000000;stroke-width:2.64583302;stroke-linecap:round;stroke-linejoin:miter;stroke-miterlimit:4;stroke-dasharray:none;stroke-opacity:1;marker-end:url(#marker1629)"
           d="M -410.79653,161.94484 V 398.70511"
           id="path1625" />
        <g
           transform="translate(-409.2744,140.74164)"
           id="g2597">
          <path
             id="path2047"
             d="m -1.4967102,311.9141 v 12.01096"
             style="fill:none;stroke:#000000;stroke-width:2.64583325;stroke-linecap:round;stroke-linejoin:miter;stroke-miterlimit:4;stroke-dasharray:none;stroke-opacity:1" />
          <path
             style="fill:none;stroke:#000000;stroke-width:2.64583325;stroke-linecap:round;stroke-linejoin:miter;stroke-miterlimit:4;stroke-dasharray:2.64583334, 5.29166668;stroke-dashoffset:0;stroke-opacity:1"
             d="m -1.4967102,329.37656 v 12.01096"
             id="path2587" />
        </g>
        <g
           transform="translate(-412.29324,-194.03286)"
           id="g2593">
          <path
             style="fill:none;stroke:#000000;stroke-width:2.64583325;stroke-linecap:round;stroke-linejoin:miter;stroke-miterlimit:4;stroke-dasharray:none;stroke-opacity:1;marker-end:url(#marker2003)"
             d="M 1.4967084,22.0879 V 48.546235"
             id="path1999" />
          <path
             id="path2589"
             d="M 1.5221307,5.9589409 V 17.969902"
             style="fill:none;stroke:#000000;stroke-width:2.64583325;stroke-linecap:round;stroke-linejoin:miter;stroke-miterlimit:4;stroke-dasharray:2.64583334, 5.29166668;stroke-dashoffset:0;stroke-opacity:1" />
        </g>
        <g
           transform="translate(-14.816691,251.88332)"
           id="g3329">
          <g
             id="g3322"
             transform="translate(5.1860387,-0.0283001)">
            <path
               id="path2617"
               style="fill-rule:evenodd;stroke-width:0.52916664;stroke-miterlimit:4;stroke-dasharray:none"
               d="m -59.690195,105.94056 a 10.583333,10.583333 0 0 1 -10.58333,10.58334 10.583333,10.583333 0 0 1 -10.58333,-10.58334 10.583333,10.583333 0 0 1 10.58333,-10.583331 10.583333,10.583333 0 0 1 10.58333,10.583331 z m 2.64584,0 a 13.229167,13.229167 0 0 1 -13.22917,13.22917 13.229167,13.229167 0 0 1 -13.22917,-13.22917 13.229167,13.229167 0 0 1 13.22917,-13.229165 13.229167,13.229167 0 0 1 13.22917,13.229165 z" />
            <path
               style="fill:none;stroke:#000000;stroke-width:2.64583325;stroke-linecap:round;stroke-linejoin:miter;stroke-miterlimit:4;stroke-dasharray:none;stroke-opacity:1;marker-end:url(#marker3137)"
               d="m -70.298947,132.69072 v 52.91667"
               id="path2621" />
            <path
               id="path2623"
               d="M -70.298947,203.12845 V 256.0451"
               style="fill:none;stroke:#000000;stroke-width:2.64583325;stroke-linecap:round;stroke-linejoin:miter;stroke-miterlimit:4;stroke-dasharray:none;stroke-opacity:1;marker-end:url(#marker2627)" />
          </g>
          <rect
             style="fill:none;fill-rule:evenodd;stroke:#000000;stroke-width:2.64583325;stroke-linecap:round;stroke-miterlimit:4;stroke-dasharray:none;stroke-dashoffset:0;stroke-opacity:1"
             id="rect2977"
             width="132.29167"
             height="211.66667"
             x="-131.23332"
             y="70.516647"
             rx="10.583333"
             ry="10.583333" />
        </g>
        <g
           transform="translate(505.88333,-214.31252)"
           id="g3499">
          <g
             id="g3493"
             transform="translate(6.3499763,-3.4103268)">
            <path
               d="m -581.55416,317.57893 a 10.583333,10.583333 0 0 1 -10.58332,10.58334 10.583333,10.583333 0 0 1 -10.58334,-10.58334 10.583333,10.583333 0 0 1 10.58334,-10.58333 10.583333,10.583333 0 0 1 10.58332,10.58333 z m 2.64584,0 a 13.229167,13.229167 0 0 1 -13.22916,13.22917 13.229167,13.229167 0 0 1 -13.22918,-13.22917 13.229167,13.229167 0 0 1 13.22918,-13.22916 13.229167,13.229167 0 0 1 13.22916,13.22916 z"
               style="fill-rule:evenodd;stroke-width:0.52916664;stroke-miterlimit:4;stroke-dasharray:none"
               id="path3331" />
            <path
               id="path3333"
               d="m -592.16291,344.32909 v 52.91667"
               style="fill:none;stroke:#000000;stroke-width:2.64583325;stroke-linecap:round;stroke-linejoin:miter;stroke-miterlimit:4;stroke-dasharray:none;stroke-opacity:1;marker-end:url(#marker3423)" />
          </g>
          <rect
             ry="10.583333"
             rx="10.583333"
             y="283.24164"
             x="-651.93335"
             height="132.29167"
             width="132.29167"
             id="rect3339"
             style="fill:none;fill-rule:evenodd;stroke:#000000;stroke-width:2.64583325;stroke-linecap:round;stroke-miterlimit:4;stroke-dasharray:none;stroke-dashoffset:0;stroke-opacity:1" />
        </g>
        <g
           transform="translate(-10.583308,19.049976)"
           id="g3599">
          <path
             d="m -58.737539,-137.44588 a 10.583333,10.583333 0 0 1 -10.58333,10.58333 10.583333,10.583333 0 0 1 -10.58333,-10.58333 10.583333,10.583333 0 0 1 10.58333,-10.58333 10.583333,10.583333 0 0 1 10.58333,10.58333 z m 2.64584,0 a 13.229167,13.229167 0 0 1 -13.22917,13.22917 13.229167,13.229167 0 0 1 -13.22917,-13.22917 13.229167,13.229167 0 0 1 13.22917,-13.22917 13.229167,13.229167 0 0 1 13.22917,13.22917 z"
             style="fill-rule:evenodd;stroke-width:0.52916664;stroke-miterlimit:4;stroke-dasharray:none"
             id="path2599" />
          <rect
             style="fill:none;fill-rule:evenodd;stroke:#000000;stroke-width:2.64583325;stroke-linecap:round;stroke-miterlimit:4;stroke-dasharray:none;stroke-dashoffset:0;stroke-opacity:1"
             id="rect3583"
             width="132.29167"
             height="132.29167"
             x="-135.46671"
             y="-203.59172"
             rx="10.583333"
             ry="10.583333" />
        </g>
        <path
           id="path3733"
           d="M -79.955022,-27.339539 V 38.701949"
           style="fill:none;stroke:#000000;stroke-width:5.29166603;stroke-linecap:round;stroke-linejoin:miter;stroke-miterlimit:4;stroke-dasharray:none;stroke-opacity:1;marker-end:url(#marker3737)" />
        <path
           style="fill:none;stroke:#000000;stroke-width:5.29166603;stroke-linecap:round;stroke-linejoin:miter;stroke-miterlimit:4;stroke-dasharray:none;stroke-opacity:1;marker-end:url(#marker4415)"
           d="m -79.955022,226.13132 v 66.04149"
           id="path4411" />
        <path
           id="path7730"
           d="M -345.69188,136.20545 H -215.2233"
           style="fill:none;stroke:#000000;stroke-width:10.58333302;stroke-linecap:butt;stroke-linejoin:miter;stroke-miterlimit:4;stroke-dasharray:none;stroke-opacity:1;marker-end:url(#marker8272)" />
        <text
           id="text8846"
           y="-125.51347"
           x="-446.71121"
           style="font-style:normal;font-weight:normal;font-size:28.22222137px;line-height:1.25;font-family:sans-serif;text-align:end;letter-spacing:0px;word-spacing:0px;text-anchor:end;fill:#000000;fill-opacity:1;stroke:none;stroke-width:0.26458332"
           xml:space="preserve"><tspan
             style="font-size:28.22222137px;text-align:end;text-anchor:end;stroke-width:0.26458332"
             y="-125.51347"
             x="-446.71121"
             id="tspan8844">Serializable</tspan><tspan
             id="tspan8848"
             style="font-size:28.22222137px;text-align:end;text-anchor:end;stroke-width:0.26458332"
             y="-90.235695"
             x="-446.71121">state</tspan></text>
        <text
           id="text8852"
           y="127.9574"
           x="-446.71121"
           style="font-style:normal;font-weight:normal;font-size:28.22222137px;line-height:1.25;font-family:sans-serif;text-align:end;letter-spacing:0px;word-spacing:0px;text-anchor:end;fill:#000000;fill-opacity:1;stroke:none;stroke-width:0.26458332"
           xml:space="preserve"><tspan
             style="font-size:28.22222137px;text-align:end;text-anchor:end;stroke-width:0.26458332"
             y="127.9574"
             x="-446.71121"
             id="tspan8850">Non-serializable</tspan><tspan
             id="tspan8854"
             style="font-size:28.22222137px;text-align:end;text-anchor:end;stroke-width:0.26458332"
             y="163.23517"
             x="-446.71121">state</tspan></text>
        <text
           xml:space="preserve"
           style="font-style:normal;font-weight:normal;font-size:28.22222137px;line-height:1.25;font-family:sans-serif;text-align:end;letter-spacing:0px;word-spacing:0px;text-anchor:end;fill:#000000;fill-opacity:1;stroke:none;stroke-width:0.26458332"
           x="-446.71121"
           y="421.11575"
           id="text8860"><tspan
             id="tspan8856"
             x="-446.71121"
             y="421.11575"
             style="font-size:28.22222137px;text-align:end;text-anchor:end;stroke-width:0.26458332">Non-serializable</tspan><tspan
             x="-446.71121"
             y="456.39352"
             style="font-size:28.22222137px;text-align:end;text-anchor:end;stroke-width:0.26458332"
             id="tspan8858">state</tspan></text>
        <text
           id="text8864"
           y="18.860842"
           x="-534.20288"
           style="font-style:normal;font-weight:normal;font-size:28.22222137px;line-height:1.25;font-family:sans-serif;letter-spacing:0px;word-spacing:0px;fill:#000000;fill-opacity:1;stroke:none;stroke-width:0.26458332"
           xml:space="preserve"><tspan
             style="font-size:28.22222137px;stroke-width:0.26458332"
             y="18.860842"
             x="-534.20288"
             id="tspan8862">Action</tspan></text>
        <text
           xml:space="preserve"
           style="font-style:normal;font-weight:normal;font-size:28.22222137px;line-height:1.25;font-family:sans-serif;letter-spacing:0px;word-spacing:0px;fill:#000000;fill-opacity:1;stroke:none;stroke-width:0.26458332"
           x="-534.20288"
           y="292.17545"
           id="text8868"><tspan
             id="tspan8866"
             x="-534.20288"
             y="292.17545"
             style="font-size:28.22222137px;stroke-width:0.26458332">Action</tspan></text>
        <text
           id="text8872"
           y="-107.87459"
           x="19.094057"
           style="font-style:normal;font-weight:normal;font-size:28.22222137px;line-height:1.25;font-family:sans-serif;letter-spacing:0px;word-spacing:0px;fill:#000000;fill-opacity:1;stroke:none;stroke-width:0.26458332"
           xml:space="preserve"><tspan
             style="font-size:28.22222137px;stroke-width:0.26458332"
             y="-107.87459"
             x="19.094057"
             id="tspan8870">Proof</tspan></text>
        <text
           xml:space="preserve"
           style="font-style:normal;font-weight:normal;font-size:28.22222137px;line-height:1.25;font-family:sans-serif;letter-spacing:0px;word-spacing:0px;fill:#000000;fill-opacity:1;stroke:none;stroke-width:0.26458332"
           x="19.094057"
           y="145.59628"
           id="text8876"><tspan
             id="tspan8874"
             x="19.094057"
             y="145.59628"
             style="font-size:28.22222137px;stroke-width:0.26458332">Proof</tspan></text>
        <text
           id="text8880"
           y="438.75464"
           x="19.094057"
           style="font-style:normal;font-weight:normal;font-size:28.22222137px;line-height:1.25;font-family:sans-serif;letter-spacing:0px;word-spacing:0px;fill:#000000;fill-opacity:1;stroke:none;stroke-width:0.26458332"
           xml:space="preserve"><tspan
             style="font-size:28.22222137px;stroke-width:0.26458332"
             y="438.75464"
             x="19.094057"
             id="tspan8878">Proof</tspan></text>
        <text
           id="text8884"
           y="19.060656"
           x="-37.887264"
           style="font-style:normal;font-weight:normal;font-size:28.22222137px;line-height:1.25;font-family:sans-serif;letter-spacing:0px;word-spacing:0px;fill:#000000;fill-opacity:1;stroke:none;stroke-width:0.26458332"
           xml:space="preserve"><tspan
             style="font-size:28.22222137px;stroke-width:0.26458332"
             y="19.060656"
             x="-37.887264"
             id="tspan8882">Diff</tspan></text>
        <text
           id="text8888"
           y="272.53152"
           x="-37.887264"
           style="font-style:normal;font-weight:normal;font-size:28.22222137px;line-height:1.25;font-family:sans-serif;letter-spacing:0px;word-spacing:0px;fill:#000000;fill-opacity:1;stroke:none;stroke-width:0.26458332"
           xml:space="preserve"><tspan
             style="font-size:28.22222137px;stroke-width:0.26458332"
             y="272.53152"
             x="-37.887264"
             id="tspan8886">Diff</tspan></text>
      </g>
    </g>
  </g>
</svg>
